# xmcd
#
# Track frame offsets:
#	150
#	15243
#	27053
#	37810
#	50380
#	60967
#	71401
#	84300
#	98344
#	113011
#	124459
#	139363
#	152942
#	158966
#	165885
#	177194
#	180832
#	183122
#	185624
#	190298
#	198936
#	202766
#	214358
#	218343
#	222648
#	227572
#	231264
#	244530
#	257495
#	271182
#	283123
#	293931
#	305186
#	317150
#	327194
#	341263
#	346975
#
# Disc length: 4793 seconds
#
# Revision: 0
# Processed by: cddbd v1.5.2PL0 Copyright (c) Steve Scherf et al.
# Submitted via: EZCDAudioConverter 2.1.7.1
#
DISCID=0012b725
DTITLE=Merle Evans Circus Bands - Sounds Of The Big Top
DYEAR=1900
DGENRE=
TTITLE0=Royal Bridesmaids March
TTITLE1=Entry Of The Gladiators (Thunder and Blazes)
TTITLE2=Quality Plus
TTITLE3=Sunnyland Waltzes/The Storming Of El Carney
TTITLE4=World Events
TTITLE5=Colossus Of Columbia March
TTITLE6=Pahjamah/Bull Trombone
TTITLE7=Big Time Boogie
TTITLE8=El Caballero
TTITLE9=Pageant Of Progress
TTITLE10=Crimson Petal/The Bastinado Galop
TTITLE11=March Ponderoso
TTITLE12=Symphonia March
TTITLE13=The Big Cage
TTITLE14=Barnum and Bailey's Favorite
TTITLE15=High Ridin'
TTITLE16=Jungle Queen
TTITLE17=Roses Of Memory
TTITLE18=Stop It!
TTITLE19=Olympia Hippodrome
TTITLE20=Go
TTITLE21=Royal Decree
TTITLE22=Fosterettes March
TTITLE23=Spring Beautiful March
TTITLE24=Broadway One - Step
TTITLE25=Oh You Circus Day/Entry Of The Gladiators
TTITLE26=Caesar's Triumphal March
TTITLE27=Royal Decree March
TTITLE28=Jungle Queen
TTITLE29=Memphis The Majestic
TTITLE30=Fan Tan
TTITLE31=Miss Trombone
TTITLE32=Teddy Bear's Picnic
TTITLE33=Rolling Thunder March
TTITLE34=Crimson Petal
TTITLE35=Circus Echoes
TTITLE36=Old Glory Triumphant March
EXTD=
EXTT0=
EXTT1=
EXTT2=
EXTT3=
EXTT4=
EXTT5=
EXTT6=
EXTT7=
EXTT8=
EXTT9=
EXTT10=
EXTT11=
EXTT12=
EXTT13=
EXTT14=
EXTT15=
EXTT16=
EXTT17=
EXTT18=
EXTT19=
EXTT20=
EXTT21=
EXTT22=
EXTT23=
EXTT24=
EXTT25=
EXTT26=
EXTT27=
EXTT28=
EXTT29=
EXTT30=
EXTT31=
EXTT32=
EXTT33=
EXTT34=
EXTT35=
EXTT36=
PLAYORDER=
